:SAMPLES-PER-SECOND 30
:FULLY-SPECIFIED
:DEGREES
250
root  13.8413 39.8344 1.5025 172.395 -84.8303 -176.867
RightUpLeg  1.43939 -10.0059 -0.0576068
RightLeg  17.475 -4.20336 2.82798
RightFoot  -13.9352 -0.1782 -3.70496
RightToes  0.000482159 0.542163 -0.142577
Spine  15.1592 -0.729015 8.64083
Spine1  3.58405 0.621165 -0.254462
HEad  -5.56319 5.00707 -6.33663
LeftShoulder1  9.87997 -14.2572 -48.5659
LeftArm  4.4507 19.8167 -25.2313
LeftForeArm  28.214 -18.5442 -4.71125
LeftHand  -0.25398 0.0180481 5.50724
RightShoulder  4.62715 8.52769 32.5173
RightArm  -0.905187 -5.59937 38.6187
RightForeArm  7.66361 48.6584 12.2043
RightHand  -2.03254 5.81118 -21.2208
LeftUpLeg  -20.7028 7.90933 1.02823
LeftLeg  42.1803 3.4316 3.71869
LeftFoot  0.51197 0.430466 -4.16983
LeftToes  1.06246e-005 4.65855e-005 -8.18503e-006
251
root  12.3954 39.7725 1.37776 169.876 -84.6692 -174.182
RightUpLeg  4.40858 -9.39635 -0.280829
RightLeg  16.1592 -4.38572 3.26674
RightFoot  -15.1265 -0.2149 -3.39745
RightToes  0.000482159 0.542163 -0.142577
Spine  13.9753 -0.383561 8.97717
Spine1  3.99855 0.909497 -0.823521
HEad  -5.53387 4.93497 -6.31635
LeftShoulder1  9.83244 -14.1997 -48.4888
LeftArm  3.33921 21.7378 -24.8698
LeftForeArm  29.2306 -17.7228 -4.93343
LeftHand  -0.25398 0.0180481 5.50724
RightShoulder  4.57871 8.48428 32.2525
RightArm  0.340573 -2.7089 38.7695
RightForeArm  9.96591 51.1229 13.2038
RightHand  -1.95309 5.56797 -20.8525
LeftUpLeg  -21.2712 10.083 0.320214
LeftLeg  30.5733 1.62596 1.63716
LeftFoot  1.01014 0.42532 -3.99464
LeftToes  1.06246e-005 4.65855e-005 -8.18503e-006
252
root  10.9409 39.7138 1.26515 170.554 -84.3992 -174.694
RightUpLeg  7.56706 -9.34978 -0.968203
RightLeg  14.5107 -3.65 3.79552
RightFoot  -16.0744 -0.233349 -3.02211
RightToes  0.000482159 0.542163 -0.142577
Spine  12.878 0.0865582 8.88815
Spine1  4.61145 1.41413 -1.74742
HEad  -5.50637 4.72434 -5.97109
LeftShoulder1  9.76822 -14.1634 -48.2688
LeftArm  1.56461 23.399 -24.769
LeftForeArm  30.4284 -16.6282 -5.18165
LeftHand  -0.25398 0.0180481 5.50724
RightShoulder  4.57145 8.48673 32.1837
RightArm  0.887317 -0.573052 38.6884
RightForeArm  11.6856 52.6424 13.8546
RightHand  -1.88013 5.32479 -20.5357
LeftUpLeg  -20.5415 11.7265 -0.547593
LeftLeg  16.8899 -0.0270165 -0.676556
LeftFoot  1.69859 0.396374 -3.54846
LeftToes  1.06246e-005 4.65855e-005 -8.18503e-006
253
root  9.43764 39.5811 1.16376 173.166 -84.0705 -177.679
RightUpLeg  11.2002 -9.83949 -2.2373
RightLeg  13.3477 -2.06842 4.22475
RightFoot  -17.3749 -0.224119 -2.04597
RightToes  0.000482159 0.542163 -0.142577
Spine  12.3762 0.517698 8.40279
Spine1  5.38785 2.0519 -2.74951
HEad  -5.33153 4.44727 -5.23642
LeftShoulder1  9.64192 -14.0698 -47.8936
LeftArm  -0.544539 24.8918 -24.8812
LeftForeArm  31.5437 -15.5815 -5.31031
LeftHand  -0.25398 0.0180481 5.50724
RightShoulder  4.63906 8.58987 32.4181
RightArm  0.927917 0.785264 38.4008
RightForeArm  12.5513 53.0312 13.994
RightHand  -1.84573 5.22743 -20.3501
LeftUpLeg  -18.0233 6.93002 1.29046
LeftLeg  3.35623 7.596 -3.96125
LeftFoot  1.68533 0.527221 -4.72676
LeftToes  1.06246e-005 4.65855e-005 -8.18503e-006
254
root  7.82357 39.314 1.09865 173.148 -83.9853 -178.228
RightUpLeg  14.5251 -10.8524 -3.56751
RightLeg  13.7239 -0.121405 4.36906
RightFoot  -18.836 -0.175204 -0.722288
RightToes  0.000482159 0.542163 -0.142577
Spine  11.8178 0.788916 8.14362
Spine1  5.99007 2.46291 -3.41127
HEad  -4.93808 4.19465 -4.19608
LeftShoulder1  9.46983 -13.9079 -47.4696
LeftArm  -2.54331 26.2887 -25.0669
LeftForeArm  32.1878 -14.7854 -5.28569
LeftHand  -0.25398 0.0180481 5.50724
RightShoulder  4.68864 8.66284 32.596
RightArm  0.671484 1.53622 38.5496
RightForeArm  12.1619 51.7915 13.3741
RightHand  -1.88953 5.38374 -20.5262
LeftUpLeg  -16.1953 2.88881 2.43131
LeftLeg  -5.13891 17.8416 -7.23109
LeftFoot  0.140059 0.645263 -6.40958
LeftToes  1.06246e-005 4.65855e-005 -8.18503e-006
255
root  6.11014 39.0253 1.06872 173.657 -84.4228 -178.892
RightUpLeg  17.1375 -12.3695 -5.07874
RightLeg  15.0661 1.89281 4.22934
RightFoot  -19.5726 -0.0963192 0.506196
RightToes  0.000482159 0.542163 -0.142577
Spine  10.7577 0.883872 7.80552
Spine1  6.52555 2.65646 -3.91036
HEad  -4.4358 3.81134 -3.0983
LeftShoulder1  9.31009 -13.7369 -47.1252
LeftArm  -4.18067 27.5733 -25.1491
LeftForeArm  32.3233 -14.3426 -5.13339
LeftHand  -0.25398 0.0180481 5.50724
RightShoulder  4.6692 8.6219 32.5657
RightArm  0.105731 1.46188 39.2283
RightForeArm  10.8412 49.1362 12.1892
RightHand  -1.96808 5.61661 -20.9185
LeftUpLeg  -16.5572 2.94071 1.24369
LeftLeg  -5.07984 23.6332 -8.23367
LeftFoot  -1.28894 0.514142 -5.76889
LeftToes  1.06246e-005 4.65855e-005 -8.18503e-006
256
root  4.30964 38.7746 1.05081 179.895 -84.8916 174.732
RightUpLeg  19.7451 -14.5225 -7.63715
RightLeg  16.8221 5.01319 4.00052
RightFoot  -19.6326 0.064663 2.66856
RightToes  0.000482159 0.542163 -0.142577
Spine  9.67777 1.13102 6.68129
Spine1  7.09859 2.98068 -4.28875
HEad  -3.93228 3.13798 -2.18699
LeftShoulder1  9.17527 -13.5525 -46.9406
LeftArm  -5.25302 28.634 -24.9316
LeftForeArm  31.9814 -14.2524 -4.9375
LeftHand  -0.25398 0.0180481 5.50724
RightShoulder  4.67804 8.55952 32.8378
RightArm  -0.627126 0.331209 39.6056
RightForeArm  9.2013 45.6011 10.8092
RightHand  -2.0275 5.81189 -21.1688
LeftUpLeg  -16.881 2.8243 -0.696374
LeftLeg  -1.39379 25.3684 -7.26573
LeftFoot  1.48713 0.0871113 -1.03704
LeftToes  1.06246e-005 4.65855e-005 -8.18503e-006
257
root  2.43418 38.5413 1.02654 -167.646 -84.7473 161.569
RightUpLeg  22.1259 -16.0693 -11.1169
RightLeg  20.0643 8.67404 3.9512
RightFoot  -18.8097 0.329015 7.10782
RightToes  0.000482159 0.542163 -0.142577
Spine  9.09809 1.75877 4.60942
Spine1  7.35669 3.46816 -4.24755
HEad  -3.23499 2.28425 -1.54373
LeftShoulder1  9.02964 -13.2744 -46.9612
LeftArm  -5.80083 29.2545 -24.3127
LeftForeArm  31.3553 -14.2317 -4.81673
LeftHand  -0.25398 0.0180481 5.50724
RightShoulder  4.80229 8.57086 33.8245
RightArm  -0.998287 -1.44595 39.3232
RightForeArm  7.19863 40.7023 9.18722
RightHand  -2.11651 6.23646 -21.2945
LeftUpLeg  -17.6917 5.4422 -3.97283
LeftLeg  5.86859 20.458 -3.86437
LeftFoot  5.53012 -0.851904 5.52091
LeftToes  1.06246e-005 4.65855e-005 -8.18503e-006
258
root  0.621946 38.4778 1.00766 -151.385 -84.1709 144.416
RightUpLeg  21.8765 -13.7659 -13.2074
RightLeg  26.2504 8.00738 3.92492
RightFoot  -14.1848 0.188017 12.3288
RightToes  0.000482159 0.542163 -0.142577
Spine  9.10903 2.30868 1.95555
Spine1  7.11259 3.81503 -4.13615
HEad  -2.08382 1.46838 -1.23667
LeftShoulder1  8.88095 -12.9356 -47.1421
LeftArm  -6.39878 29.2064 -23.5459
LeftForeArm  30.9053 -13.9102 -4.76793
LeftHand  -0.25398 0.0180481 5.50724
RightShoulder  4.97824 8.6428 35.0233
RightArm  -0.361084 -3.04936 39.28
RightForeArm  4.28206 33.2707 7.08687
RightHand  -2.24668 6.93083 -21.3513
LeftUpLeg  -17.794 11.5865 -8.6742
LeftLeg  11.6571 11.8384 -0.607385
LeftFoot  7.19603 -1.68693 10.1175
LeftToes  1.06246e-005 4.65855e-005 -8.18503e-006
259
root  -1.01887 38.5847 1.04266 -138.782 -83.3859 131.292
RightUpLeg  17.4687 -9.81548 -13.6225
RightLeg  36.4413 4.49119 3.2665
RightFoot  -3.74506 -0.938207 14.2327
RightToes  0.000482159 0.542163 -0.142577
Spine  9.34893 2.47032 0.196433
Spine1  6.55209 3.97658 -4.69763
HEad  -0.690701 0.813573 -1.48718
LeftShoulder1  8.80117 -12.73 -47.3124
LeftArm  -7.53843 28.4243 -23.1574
LeftForeArm  30.7633 -13.3808 -4.65924
LeftHand  -0.25398 0.0180481 5.50724
RightShoulder  5.10947 8.7801 35.6229
RightArm  -0.106132 -4.03418 40.1809
RightForeArm  2.45197 23.3826 5.4595
RightHand  -2.15861 6.89665 -20.5853
LeftUpLeg  -17.0042 15.5993 -11.9382
LeftLeg  15.3111 7.85166 1.56576
LeftFoot  4.86984 -1.60914 11.0174
LeftToes  1.06246e-005 4.65855e-005 -8.18503e-006
260
root  -2.43821 38.6959 1.1229 -133.069 -82.2046 125.297
RightUpLeg  10.2583 -6.14278 -13.7041
RightLeg  48.2397 1.92367 1.99287
RightFoot  8.1953 -1.93021 11.5939
RightToes  0.000482159 0.542163 -0.142577
Spine  9.7791 2.57242 -0.614266
Spine1  6.38746 4.23595 -6.11749
HEad  0.327886 0.458199 -2.39746
LeftShoulder1  8.80256 -12.7371 -47.2993
LeftArm  -8.79959 27.0527 -23.4498
LeftForeArm  30.4939 -13.2988 -4.45081
LeftHand  -0.25398 0.0180481 5.50724
RightShoulder  5.21511 9.03477 35.6206
RightArm  -5.30133 -4.63584 41.1754
RightForeArm  8.34474 13.1048 6.20822
RightHand  -1.62672 5.10843 -18.1407
LeftUpLeg  -15.2575 16.716 -13.34
LeftLeg  17.296 7.88 2.4165
LeftFoot  1.096 -1.13011 10.2852
LeftToes  1.06246e-005 4.65855e-005 -8.18503e-006
261
root  -3.77152 38.8388 1.20714 -133.033 -80.9583 124.742
RightUpLeg  2.99396 -3.00913 -13.7576
RightLeg  58.0279 0.508845 0.420565
RightFoot  14.0536 -1.62381 7.54929
RightToes  0.000482159 0.542163 -0.142577
Spine  10.4015 2.7178 -1.09571
Spine1  6.8105 4.48933 -7.43763
HEad  0.632481 0.585857 -3.60276
LeftShoulder1  8.78338 -12.7707 -47.0946
LeftArm  -9.28943 25.3682 -24.2487
LeftForeArm  29.8711 -14.3347 -4.23719
LeftHand  -0.25398 0.0180481 5.50724
RightShoulder  5.34901 9.34636 35.6522
RightArm  -10.1179 -5.5324 41.4826
RightForeArm  16.9089 6.19443 6.15
RightHand  -1.01626 2.58288 -15.0218
LeftUpLeg  -12.4369 15.8374 -13.3795
LeftLeg  17.8218 9.53687 1.97373
LeftFoot  -1.55848 -0.850137 10.0283
LeftToes  1.06246e-005 4.65855e-005 -8.18503e-006
